<svg width="118" height="90" viewBox="0 0 118 90" fill="none" xmlns="http://www.w3.org/2000/svg">
<rect width="118" height="90" fill="white"/>
<circle cx="59" cy="45" r="40" fill="#EF6C57"/>
<path fill-rule="evenodd" clip-rule="evenodd" d="M44 29C43.4477 29 43 29.4477 43 30V54.99V55.088C43.0213 56.6491 43.6522 58.1399 44.758 59.242C45.8817 60.3692 47.4084 61.0019 49 61H74C74.5523 61 75 60.5523 75 60V50C75 49.4477 74.5523 49 74 49H63.522L71.778 40.78C71.9661 40.5924 72.0718 40.3377 72.0718 40.072C72.0718 39.8063 71.9661 39.5516 71.778 39.364L64.708 32.292C64.3175 31.9016 63.6845 31.9016 63.294 32.292L55 40.554V30C55 29.4477 54.5523 29 54 29H44ZM69.656 40.068L55 54.668V43.376L63.998 34.412L69.656 40.068ZM52 55C52 53.3431 50.6569 52 49 52C47.3431 52 46 53.3431 46 55C46 56.6568 47.3431 58 49 58C50.6569 58 52 56.6568 52 55ZM61.516 51H73V59H53.486L61.516 51Z" fill="white"/>
</svg>
